#N canvas 46 142 652 776 12;
#X obj 266 510 outlet~;
#X obj 432 172 inlet routing;
#X obj 432 199 sel 0 1 2 3;
#X obj 175 469 *~;
#X obj 265 469 *~;
#X obj 345 468 *~;
#X msg 432 224 0 0 0;
#X msg 449 252 1 0 0;
#X msg 468 279 0 1 0;
#X msg 486 306 0 0 1;
#X obj 432 345 unpack f f f;
#X obj 432 376 sig~;
#X obj 472 376 sig~;
#X obj 513 377 sig~;
#X obj 192 436 lop~ 80;
#X obj 283 436 lop~ 80;
#X obj 364 437 lop~ 80;
#X obj 175 172 inlet~ s1;
#X obj 265 172 inlet~ s2;
#X obj 345 172 inlet~ s3;
#X connect 1 0 2 0;
#X connect 2 0 6 0;
#X connect 2 1 7 0;
#X connect 2 2 8 0;
#X connect 2 3 9 0;
#X connect 3 0 0 0;
#X connect 4 0 0 0;
#X connect 5 0 0 0;
#X connect 6 0 10 0;
#X connect 7 0 10 0;
#X connect 8 0 10 0;
#X connect 9 0 10 0;
#X connect 10 0 11 0;
#X connect 10 1 12 0;
#X connect 10 2 13 0;
#X connect 11 0 14 0;
#X connect 12 0 15 0;
#X connect 13 0 16 0;
#X connect 14 0 3 1;
#X connect 15 0 4 1;
#X connect 16 0 5 1;
#X connect 17 0 3 0;
#X connect 18 0 4 0;
#X connect 19 0 5 0;
