#N canvas 1569 297 959 756 12;
#X obj 352 436 osc~ 400;
#X obj 743 104 bng 15 250 50 0 empty empty empty 17 7 0 10 -262144
-1 -1;
#X obj 743 169 send song-tempo;
#X floatatom 744 136 5 0 0 0 - - -;
#X obj 454 460 osc~ 0.1;
#X obj 454 432 receive song-tempo;
#X obj 380 523 *~;
#X obj 62 76 osc~ 440;
#X obj 128 76 osc~ 220;
#X obj 203 75 osc~ 440;
#X obj 439 71 osc~ 220;
#X obj 367 70 osc~ 110;
#X obj 284 74 osc~ 550;
#X obj 111 114 +~;
#X obj 266 106 +~;
#X obj 420 100 +~;
#X obj 457 179 hradio 15 1 0 4 empty empty Wave 0 -8 0 10 -262144 -1
-1 0;
#X obj 296 290 ../abs/mux;
#X obj 724 449 timebase 60 4 0;
#X obj 110 630 dac~;
#X floatatom 97 331 5 0 0 0 - - -;
#X obj 124 416 ../abs/tri 400;
#X obj 219 563 ../abs/tri 400;
#X obj 224 496 300;
#X connect 0 0 6 0;
#X connect 1 0 3 0;
#X connect 3 0 2 0;
#X connect 4 0 6 1;
#X connect 5 0 4 0;
#X connect 7 0 13 0;
#X connect 8 0 13 1;
#X connect 9 0 14 0;
#X connect 10 0 15 1;
#X connect 11 0 15 0;
#X connect 12 0 14 1;
#X connect 13 0 17 0;
#X connect 14 0 17 1;
#X connect 15 0 17 2;
#X connect 16 0 17 3;
#X connect 20 0 21 0;
#X connect 21 0 19 0;
#X connect 22 0 19 1;
#X connect 23 0 22 0;
