#N canvas 913 47 451 700 10;
#X obj 132 164 line;
#X obj 59 147 +~;
#X obj 60 208 outlet~;
#X obj 8 92 *~ 0.05;
#X obj 109 70 osc~;
#X obj 58 70 osc~;
#X obj 8 71 osc~;
#X obj 108 91 *~ 0.5;
#X obj 58 92 *~ 0.07;
#X obj 132 9 inlet fundamental_frequency;
#X obj 8 48 * 25;
#X obj 58 47 * 9;
#X msg 132 141 1 \, 0 10000;
#X obj 60 178 *~ 0.1;
#X connect 0 0 13 1;
#X connect 1 0 13 0;
#X connect 3 0 1 0;
#X connect 4 0 7 0;
#X connect 5 0 8 0;
#X connect 6 0 3 0;
#X connect 7 0 1 0;
#X connect 8 0 1 0;
#X connect 9 0 12 0;
#X connect 9 0 10 0;
#X connect 9 0 11 0;
#X connect 9 0 4 0;
#X connect 10 0 6 0;
#X connect 11 0 5 0;
#X connect 12 0 0 0;
#X connect 13 0 2 0;
