#N canvas 913 47 451 700 10;
#X obj 311 215 line;
#X obj 238 198 +~;
#X obj 239 259 outlet~;
#X obj 148 117 *~ 0.05;
#X obj 332 116 osc~;
#X obj 237 121 osc~;
#X obj 148 96 osc~;
#X obj 148 74 expr \$1 * 25;
#X obj 237 98 expr \$1 * 9;
#X obj 334 95 expr \$1;
#X msg 311 192 1 \, 0 500;
#X obj 239 229 *~ 0.2;
#X obj 331 137 *~ 0.5;
#X obj 237 143 *~ 0.07;
#X obj 311 60 inlet fundamental_frequency;
#X connect 0 0 11 1;
#X connect 1 0 11 0;
#X connect 3 0 1 0;
#X connect 4 0 12 0;
#X connect 5 0 13 0;
#X connect 6 0 3 0;
#X connect 7 0 6 0;
#X connect 8 0 5 0;
#X connect 9 0 4 0;
#X connect 10 0 0 0;
#X connect 11 0 2 0;
#X connect 12 0 1 0;
#X connect 13 0 1 0;
#X connect 14 0 10 0;
#X connect 14 0 9 0;
#X connect 14 0 8 0;
#X connect 14 0 7 0;
