#N canvas 2 119 1362 628 10;
#X obj 34 12 tgl 15 0 empty empty empty 17 7 0 10 -262144 -1 -1 0 1
;
#N canvas 0 50 450 250 (subpatch) 0;
#X array notes 50 float 3;
#A 0 100 101 13127 14527 15179 15317 154 15448 15734 15737 15739 15800
15805 15860 15890 15901 15937 15953 15955 16116 16284 16487 16579 16621
17364 20 20000 21 22 23 24 26 29 31 32 6405 6560 6643 6993 7234 725
7302 773 92 94 95 96 97 98 99;
#X coords 0 20 50 20000 200 140 1 0 0;
#X restore 532 18 graph;
#X obj 34 131 tabread notes;
#X obj 34 57 f;
#X obj 63 57 + 1;
#X floatatom 34 105 5 0 0 0 - - -;
#X obj 34 81 mod 50;
#X obj 35 444 dac~;
#X floatatom 34 157 5 0 0 0 - - -;
#X msg 532 163 \; notes read ./data/meteors-1980-notes-normalised.csv
;
#X obj 122 118 mod 5;
#X obj 761 310 panner;
#X obj 797 289 hsl 128 15 0 1 0 0 empty empty empty -2 -8 0 10 -262144
-1 -1 0 1;
#X obj 35 318 panner;
#X obj 71 297 hsl 128 15 0 1 0 0 empty empty empty -2 -8 0 10 -262144
-1 -1 700 1;
#X obj 211 318 panner;
#X obj 247 295 hsl 128 15 0 1 0 0 empty empty empty -2 -8 0 10 -262144
-1 -1 0 1;
#X obj 386 317 panner;
#X obj 422 297 hsl 128 15 0 1 0 0 empty empty empty -2 -8 0 10 -262144
-1 -1 0 1;
#X obj 565 315 panner;
#X obj 601 293 hsl 128 15 0 1 0 0 empty empty empty -2 -8 0 10 -262144
-1 -1 0 1;
#X obj 34 35 metro 1 40 permin;
#X obj 216 20 osc~ 75;
#X obj 231 84 osc~ 2;
#X obj 231 63 line;
#X obj 217 106 *~;
#X msg 229 42 1 \, 10 1000;
#X obj 218 131 *~ 0.3;
#X text 836 20 Todo: Make the duration between each note longer Add
more layers (delays etc...) Figure out how to initialise the panning
;
#N canvas 2 155 1362 592 wind 0;
#X obj 191 100 noise~;
#X obj 191 122 lop~ 15;
#X obj 175 170 outlet~;
#X obj 175 147 *~;
#X obj 176 80 osc~ 440;
#X connect 0 0 1 0;
#X connect 1 0 3 1;
#X connect 3 0 2 0;
#X connect 4 0 3 0;
#X restore 394 19 pd wind;
#X obj 122 139 send modulus;
#X obj 284 19 receive modulus;
#X obj 34 179 send meteor-freq;
#X obj 34 231 send~ blip-1;
#X obj 34 274 receive~ blip-1;
#X obj 211 274 receive~ blip-2;
#X obj 385 275 receive~ blip-3;
#X obj 760 267 receive~ blip-5;
#X obj 565 272 receive~ blip-4;
#X obj 34 211 spigot-blip 0;
#X obj 128 231 send~ blip-2;
#X obj 218 230 send~ blip-3;
#X obj 305 230 send~ blip-4;
#X obj 391 229 send~ blip-5;
#X obj 128 211 spigot-blip 1;
#X obj 218 210 spigot-blip 2;
#X obj 305 210 spigot-blip 3;
#X obj 391 209 spigot-blip 4;
#X obj 35 362 throw~ out-left;
#X obj 67 341 throw~ out-right;
#X obj 35 399 catch~ out-left;
#X obj 57 422 catch~ out-right;
#X obj 210 361 throw~ out-left;
#X obj 244 340 throw~ out-right;
#X obj 387 361 throw~ out-left;
#X obj 418 340 throw~ out-right;
#X obj 566 359 throw~ out-left;
#X obj 598 337 throw~ out-right;
#X obj 760 353 throw~ out-left;
#X obj 793 333 throw~ out-right;
#X obj 393 63 throw~ out-left;
#X obj 402 41 throw~ out-right;
#X obj 218 172 throw~ out-left;
#X obj 225 152 throw~ out-right;
#X connect 0 0 21 0;
#X connect 2 0 8 0;
#X connect 3 0 4 0;
#X connect 3 0 6 0;
#X connect 4 0 3 1;
#X connect 5 0 10 0;
#X connect 5 0 2 0;
#X connect 6 0 5 0;
#X connect 8 0 32 0;
#X connect 10 0 30 0;
#X connect 11 0 58 0;
#X connect 11 1 59 0;
#X connect 12 0 11 1;
#X connect 13 0 48 0;
#X connect 13 1 49 0;
#X connect 14 0 13 1;
#X connect 15 0 52 0;
#X connect 15 1 53 0;
#X connect 16 0 15 1;
#X connect 17 0 54 0;
#X connect 17 1 55 0;
#X connect 18 0 17 1;
#X connect 19 0 56 0;
#X connect 19 1 57 0;
#X connect 20 0 19 1;
#X connect 21 0 3 0;
#X connect 22 0 25 0;
#X connect 23 0 25 1;
#X connect 24 0 23 0;
#X connect 25 0 27 0;
#X connect 26 0 24 0;
#X connect 27 0 63 0;
#X connect 27 0 62 0;
#X connect 29 0 61 0;
#X connect 29 0 60 0;
#X connect 31 0 26 0;
#X connect 34 0 13 0;
#X connect 35 0 15 0;
#X connect 36 0 17 0;
#X connect 37 0 11 0;
#X connect 38 0 19 0;
#X connect 39 0 33 0;
#X connect 44 0 40 0;
#X connect 45 0 41 0;
#X connect 46 0 42 0;
#X connect 47 0 43 0;
#X connect 50 0 7 0;
#X connect 51 0 7 1;
