#N canvas 2 101 1362 646 10;
#X obj 115 37 tgl 15 0 empty empty empty 17 7 0 10 -262144 -1 -1 0
1;
#N canvas 0 50 450 250 (subpatch) 0;
#X array notes 50 float 3;
#A 0 100 101 13127 14527 15179 15317 154 15448 15734 15737 15739 15800
15805 15860 15890 15901 15937 15953 15955 16116 16284 16487 16579 16621
17364 20 20000 21 22 23 24 26 29 31 32 6405 6560 6643 6993 7234 725
7302 773 92 94 95 96 97 98 99;
#X coords 0 20 50 20000 200 140 1 0 0;
#X restore 611 19 graph;
#X obj 115 156 tabread notes;
#X obj 115 82 f;
#X obj 147 82 + 1;
#X floatatom 115 129 5 0 0 0 - - -;
#X obj 115 106 mod 50;
#X obj 515 616 dac~;
#X floatatom 115 182 5 0 0 0 - - -;
#X msg 284 19 \; notes read ./data/meteors-1980-notes-normalised.csv
;
#X obj 901 424 blip;
#X obj 228 142 mod 5;
#X obj 901 449 panner;
#X obj 937 424 hsl 128 15 0 1 0 0 empty empty empty -2 -8 0 10 -262144
-1 -1 12700 1;
#X obj 114 431 blip;
#X obj 114 456 panner;
#X obj 164 428 hsl 128 15 0 1 0 0 empty empty empty -2 -8 0 10 -262144
-1 -1 0 1;
#X obj 309 431 blip;
#X obj 309 456 panner;
#X obj 359 428 hsl 128 15 0 1 0 0 empty empty empty -2 -8 0 10 -262144
-1 -1 4300 1;
#X obj 506 429 blip;
#X obj 506 454 panner;
#X obj 556 426 hsl 128 15 0 1 0 0 empty empty empty -2 -8 0 10 -262144
-1 -1 7800 1;
#X obj 705 425 blip;
#X obj 705 450 panner;
#X obj 755 422 hsl 128 15 0 1 0 0 empty empty empty -2 -8 0 10 -262144
-1 -1 7900 1;
#X obj 115 60 metro 1 40 permin;
#X obj 228 169 select 0 1 2 3 4;
#X obj 114 407 spigot;
#X obj 147 387 tgl 15 0 empty empty empty 17 7 0 10 -262144 -1 -1 0
1;
#X obj 309 403 spigot;
#X obj 705 402 spigot;
#X obj 506 402 spigot;
#X obj 901 400 spigot;
#X obj 342 383 tgl 15 0 empty empty empty 17 7 0 10 -262144 -1 -1 0
1;
#X obj 539 380 tgl 15 0 empty empty empty 17 7 0 10 -262144 -1 -1 0
1;
#X obj 738 380 tgl 15 0 empty empty empty 17 7 0 10 -262144 -1 -1 0
1;
#X obj 934 377 tgl 15 0 empty empty empty 17 7 0 10 -262144 -1 -1 0
1;
#X connect 0 0 26 0;
#X connect 2 0 8 0;
#X connect 3 0 4 0;
#X connect 3 0 6 0;
#X connect 4 0 3 1;
#X connect 5 0 2 0;
#X connect 5 0 11 0;
#X connect 6 0 5 0;
#X connect 8 0 28 0;
#X connect 8 0 30 0;
#X connect 8 0 32 0;
#X connect 8 0 31 0;
#X connect 8 0 33 0;
#X connect 10 0 12 0;
#X connect 11 0 27 0;
#X connect 13 0 12 1;
#X connect 14 0 15 0;
#X connect 16 0 15 1;
#X connect 17 0 18 0;
#X connect 18 0 7 0;
#X connect 18 1 7 1;
#X connect 19 0 18 1;
#X connect 20 0 21 0;
#X connect 22 0 21 1;
#X connect 23 0 24 0;
#X connect 25 0 24 1;
#X connect 26 0 3 0;
#X connect 27 1 34 0;
#X connect 28 0 14 0;
#X connect 29 0 28 1;
#X connect 30 0 17 0;
#X connect 31 0 23 0;
#X connect 32 0 20 0;
#X connect 33 0 10 0;
#X connect 34 0 30 1;
#X connect 35 0 32 1;
#X connect 36 0 31 1;
#X connect 37 0 33 1;
