#N canvas 287 47 622 700 10;
#X obj 741 642 dac~;
#X obj 679 504 select 0 1 2 3 4;
#X obj 679 536 blip 660;
#X obj 736 536 blip 100;
#X obj 790 536 blip 410;
#X obj 608 535 blip 230;
#X obj 115 37 tgl 15 0 empty empty empty 17 7 0 10 -262144 -1 -1 1
1;
#X obj 115 60 metro 1 100 permin;
#N canvas 0 50 450 250 (subpatch) 0;
#X array notes 50 float 3;
#A 0 100 101 13127 14527 15179 15317 154 15448 15734 15737 15739 15800
15805 15860 15890 15901 15937 15953 15955 16116 16284 16487 16579 16621
17364 20 20000 21 22 23 24 26 29 31 32 6405 6560 6643 6993 7234 725
7302 773 92 94 95 96 97 98 99;
#X coords 0 20 50 20000 200 140 1 0 0;
#X restore 413 145 graph;
#X obj 607 586 panner;
#X obj 735 588 panner;
#X obj 849 589 panner;
#X obj 791 590 panner;
#X obj 680 587 panner;
#X obj 849 537 blip 410;
#X floatatom 640 561 5 0 1 0 - - -;
#X floatatom 768 562 5 0 1 0 - - -;
#X floatatom 824 566 5 0 1 0 - - -;
#X floatatom 882 563 5 0 1 0 - - -;
#X floatatom 713 563 5 0 1 0 - - -;
#X obj 232 190 tabread notes;
#X obj 115 102 f;
#X obj 156 102 + 1;
#X floatatom 199 165 5 0 0 0 - - -;
#X obj 166 144 mod 50;
#X obj 63 510 dac~;
#X floatatom 282 227 5 0 0 0 - - -;
#X obj 200 333 osc~;
#X obj 175 401 dac~;
#X msg 62 445 504;
#X obj 63 482 blip 440;
#X floatatom 135 438 5 0 0 0 - - -;
#X msg 340 463 \; notes read ./data/meteors-1980-notes-normalised.csv
;
#X connect 1 0 5 0;
#X connect 1 1 2 0;
#X connect 1 2 3 0;
#X connect 1 3 4 0;
#X connect 2 0 13 0;
#X connect 3 0 10 0;
#X connect 4 0 12 0;
#X connect 5 0 9 0;
#X connect 6 0 7 0;
#X connect 7 0 21 0;
#X connect 9 0 0 0;
#X connect 9 1 0 1;
#X connect 10 0 0 0;
#X connect 10 1 0 1;
#X connect 11 0 0 0;
#X connect 11 1 0 1;
#X connect 12 0 0 0;
#X connect 12 1 0 1;
#X connect 13 0 0 0;
#X connect 13 1 0 1;
#X connect 14 0 11 0;
#X connect 15 0 9 1;
#X connect 16 0 10 1;
#X connect 17 0 12 1;
#X connect 18 0 11 1;
#X connect 19 0 13 1;
#X connect 20 0 26 0;
#X connect 21 0 22 0;
#X connect 21 0 24 0;
#X connect 22 0 21 1;
#X connect 23 0 20 0;
#X connect 24 0 23 0;
#X connect 29 0 30 0;
#X connect 30 0 25 0;
#X connect 31 0 30 0;
