#N canvas 686 47 337 700 10;
#X obj 80 115 inlet~ signal;
#X obj 203 110 inlet control;
#X obj 80 322 outlet~ left;
#X obj 172 322 outlet~ right;
#X obj 80 291 *~;
#X obj 95 266 sqrt~;
#X obj 173 291 *~;
#X obj 188 264 sqrt~;
#X obj 188 240 -~;
#X obj 187 214 sig~ 1;
#X obj 202 167 lop~ 1;
#X obj 203 138 sig~;
#X connect 0 0 4 0;
#X connect 0 0 6 0;
#X connect 1 0 11 0;
#X connect 4 0 2 0;
#X connect 5 0 4 1;
#X connect 6 0 3 0;
#X connect 7 0 6 1;
#X connect 8 0 7 0;
#X connect 9 0 8 0;
#X connect 10 0 8 1;
#X connect 10 0 5 0;
#X connect 11 0 10 0;
