#N canvas 2 209 1362 538 10;
#X obj 40 493 dac~;
#X obj 113 29 bng 15 250 50 0 empty empty empty 17 7 0 10 -262144 -1
-1;
#X obj 75 139 unpack f f f f f f f;
#X obj 151 179 mtof;
#X obj 252 179 mtof;
#X obj 49 178 mtof;
#X obj 82 178 mtof;
#X obj 116 179 mtof;
#X obj 185 180 mtof;
#X obj 220 179 mtof;
#X obj 47 199 blip;
#X obj 82 200 blip;
#X obj 151 201 blip;
#X obj 116 201 blip;
#X obj 185 202 blip;
#X obj 220 202 blip;
#X obj 252 202 blip;
#X obj 47 378 throw~ out-l;
#X obj 85 446 catch~ out-r;
#X obj 40 424 catch~ out-l;
#X obj 82 356 delwrite~ t1 1000;
#X obj 117 335 delwrite~ t2 2000;
#X obj 150 315 delwrite~ t3 3000;
#X obj 186 296 delwrite~ t4 4000;
#X obj 221 276 delwrite~ t5 5000;
#X obj 252 253 delwrite~ t6 6000;
#X obj 386 363 delread~ t1 250;
#X obj 386 382 delread~ t2 500;
#X obj 386 403 delread~ t3 750;
#X obj 386 424 delread~ t4 1000;
#X obj 386 445 delread~ t5 1250;
#X obj 386 464 delread~ t6 1500;
#X obj 75 109 mood-to-notes 2;
#X obj 578 231 dac~;
#X text 692 29 Ideas: - Change the timbre depending on time of day/mood
;
#X obj 40 470 *~ 0.2;
#X obj 84 469 *~ 0.2;
#X obj 371 127 kick 40;
#N canvas 2 209 1362 538 big-bass 1;
#X obj 390 250 outlet~;
#X obj 355 111 phasor~ 50;
#X obj 369 130 phasor~ 51;
#X obj 381 150 phasor~ 52;
#X obj 391 172 phasor~ 53;
#X obj 330 188 osc~ 50;
#X obj 391 209 *~ 0.2;
#X obj 330 210 *~ 0.4;
#X connect 1 0 6 0;
#X connect 2 0 6 0;
#X connect 3 0 6 0;
#X connect 4 0 6 0;
#X connect 5 0 7 0;
#X connect 6 0 0 0;
#X connect 7 0 0 0;
#X restore 803 364 pd big-bass;
#X floatatom 578 162 5 0 0 0 - - -;
#X obj 578 120 mod 50;
#X text 757 125 Make it reset back to 550 when it hits 500;
#X obj 578 208 random-noise;
#X obj 113 67 metro 1 60 permin;
#X obj 578 98 counter 10000;
#X obj 578 140 + 10000;
#X obj 634 130 reset-every 50;
#X connect 1 0 43 0;
#X connect 2 0 5 0;
#X connect 2 1 6 0;
#X connect 2 2 7 0;
#X connect 2 3 3 0;
#X connect 2 4 8 0;
#X connect 2 5 9 0;
#X connect 2 6 4 0;
#X connect 3 0 12 0;
#X connect 4 0 16 0;
#X connect 5 0 10 0;
#X connect 6 0 11 0;
#X connect 7 0 13 0;
#X connect 8 0 14 0;
#X connect 9 0 15 0;
#X connect 10 0 17 0;
#X connect 11 0 20 0;
#X connect 12 0 22 0;
#X connect 13 0 21 0;
#X connect 14 0 23 0;
#X connect 15 0 24 0;
#X connect 16 0 25 0;
#X connect 18 0 36 0;
#X connect 19 0 35 0;
#X connect 26 0 17 0;
#X connect 27 0 17 0;
#X connect 28 0 17 0;
#X connect 29 0 17 0;
#X connect 30 0 17 0;
#X connect 31 0 17 0;
#X connect 32 0 2 0;
#X connect 35 0 0 0;
#X connect 36 0 0 1;
#X connect 39 0 42 0;
#X connect 40 0 45 0;
#X connect 42 0 33 0;
#X connect 43 0 44 0;
#X connect 44 0 40 0;
#X connect 45 0 39 0;
