#N canvas 2 119 1362 628 10;
#X obj 34 12 tgl 15 0 empty empty empty 17 7 0 10 -262144 -1 -1 1 1
;
#N canvas 0 50 450 250 (subpatch) 0;
#X array notes 50 float 3;
#A 0 100 101 13127 14527 15179 15317 154 15448 15734 15737 15739 15800
15805 15860 15890 15901 15937 15953 15955 16116 16284 16487 16579 16621
17364 20 20000 21 22 23 24 26 29 31 32 6405 6560 6643 6993 7234 725
7302 773 92 94 95 96 97 98 99;
#X coords 0 20 50 20000 200 140 1 0 0;
#X restore 400 21 graph;
#X obj 34 131 tabread notes;
#X obj 34 57 f;
#X obj 63 57 + 1;
#X floatatom 34 105 5 0 0 0 - - -;
#X obj 34 81 mod 50;
#X obj 43 526 dac~;
#X floatatom 34 157 5 0 0 0 - - -;
#X msg 400 166 \; notes read ./data/meteors-1980-notes-normalised.csv
;
#X obj 122 118 mod 5;
#X obj 769 344 panner;
#X obj 43 349 panner;
#X obj 220 351 panner;
#X obj 394 354 panner;
#X obj 573 348 panner;
#X obj 216 20 osc~ 75;
#X obj 231 84 osc~ 2;
#X obj 231 63 line;
#X obj 217 106 *~;
#X obj 218 131 *~ 0.3;
#N canvas 2 101 1362 646 wind 0;
#X obj 191 100 noise~;
#X obj 191 122 lop~ 15;
#X obj 175 170 outlet~;
#X obj 175 147 *~;
#X obj 176 80 osc~ 440;
#X connect 0 0 1 0;
#X connect 1 0 3 1;
#X connect 3 0 2 0;
#X connect 4 0 3 0;
#X restore 41 205 pd wind;
#X obj 122 139 send modulus;
#X obj 284 19 receive modulus;
#X obj 34 179 send meteor-freq;
#X obj 165 247 send~ blip-1;
#X obj 42 315 receive~ blip-1;
#X obj 219 315 receive~ blip-2;
#X obj 393 316 receive~ blip-3;
#X obj 768 308 receive~ blip-5;
#X obj 573 313 receive~ blip-4;
#X obj 165 227 spigot-blip 0;
#X obj 259 247 send~ blip-2;
#X obj 349 246 send~ blip-3;
#X obj 436 246 send~ blip-4;
#X obj 522 245 send~ blip-5;
#X obj 259 227 spigot-blip 1;
#X obj 349 226 spigot-blip 2;
#X obj 436 226 spigot-blip 3;
#X obj 522 225 spigot-blip 4;
#X obj 43 432 throw~ out-left;
#X obj 76 391 throw~ out-right;
#X obj 43 480 catch~ out-left;
#X obj 65 503 catch~ out-right;
#X obj 219 443 throw~ out-left;
#X obj 253 400 throw~ out-right;
#X obj 394 445 throw~ out-left;
#X obj 427 402 throw~ out-right;
#X obj 574 438 throw~ out-left;
#X obj 607 393 throw~ out-right;
#X obj 770 428 throw~ out-left;
#X obj 801 385 throw~ out-right;
#X obj 40 249 throw~ out-left;
#X obj 49 227 throw~ out-right;
#X obj 218 172 throw~ out-left;
#X obj 225 152 throw~ out-right;
#X obj 44 414 *~ 0.3;
#X obj 76 373 *~ 0.3;
#X obj 219 422 *~ 0.3;
#X obj 254 376 *~ 0.3;
#X obj 394 423 *~ 0.3;
#X obj 426 378 *~ 0.3;
#X obj 574 415 *~ 0.3;
#X obj 607 370 *~ 0.3;
#X obj 769 407 *~ 0.3;
#X obj 802 366 *~ 0.3;
#X msg 229 42 1 \, 10 1000;
#X obj 496 279 loadbang;
#X floatatom 144 336 5 -1 1 0 - - -;
#X floatatom 882 331 5 -1 0 0 - - -;
#X floatatom 687 335 5 -1 0 0 - - -;
#X floatatom 496 341 5 -1 0 0 - - -;
#X floatatom 321 338 5 -1 0 0 - - -;
#X msg 146 315 -1;
#X msg 496 317 0;
#X msg 882 308 1;
#X msg 687 313 0.5;
#X msg 321 316 -0.5;
#X obj 34 35 metro 1 30 permin;
#X connect 0 0 78 0;
#X connect 2 0 8 0;
#X connect 3 0 4 0;
#X connect 3 0 6 0;
#X connect 4 0 3 1;
#X connect 5 0 10 0;
#X connect 5 0 2 0;
#X connect 6 0 5 0;
#X connect 8 0 24 0;
#X connect 10 0 22 0;
#X connect 11 0 64 0;
#X connect 11 1 65 0;
#X connect 12 0 56 0;
#X connect 12 1 57 0;
#X connect 13 0 58 0;
#X connect 13 1 59 0;
#X connect 14 0 60 0;
#X connect 14 1 61 0;
#X connect 15 0 62 0;
#X connect 15 1 63 0;
#X connect 16 0 19 0;
#X connect 17 0 19 1;
#X connect 18 0 17 0;
#X connect 19 0 20 0;
#X connect 20 0 55 0;
#X connect 20 0 54 0;
#X connect 21 0 53 0;
#X connect 21 0 52 0;
#X connect 23 0 66 0;
#X connect 26 0 12 0;
#X connect 27 0 13 0;
#X connect 28 0 14 0;
#X connect 29 0 11 0;
#X connect 30 0 15 0;
#X connect 31 0 25 0;
#X connect 36 0 32 0;
#X connect 37 0 33 0;
#X connect 38 0 34 0;
#X connect 39 0 35 0;
#X connect 42 0 7 0;
#X connect 43 0 7 1;
#X connect 56 0 40 0;
#X connect 57 0 41 0;
#X connect 58 0 44 0;
#X connect 59 0 45 0;
#X connect 60 0 46 0;
#X connect 61 0 47 0;
#X connect 62 0 48 0;
#X connect 63 0 49 0;
#X connect 64 0 50 0;
#X connect 65 0 51 0;
#X connect 66 0 18 0;
#X connect 67 0 73 0;
#X connect 67 0 77 0;
#X connect 67 0 74 0;
#X connect 67 0 76 0;
#X connect 67 0 75 0;
#X connect 68 0 12 1;
#X connect 69 0 11 1;
#X connect 70 0 15 1;
#X connect 71 0 14 1;
#X connect 72 0 13 1;
#X connect 73 0 68 0;
#X connect 74 0 71 0;
#X connect 75 0 69 0;
#X connect 76 0 70 0;
#X connect 77 0 72 0;
#X connect 78 0 3 0;
