#N canvas 1632 393 958 791 12;
#X obj 114 81 * 3;
#X obj 205 81 * 5;
#X obj 71 104 osc~;
#X obj 114 104 osc~;
#X obj 205 105 osc~;
#X obj 114 126 *~ 0.1111;
#X obj 205 128 *~ 0.04;
#X obj 271 107 osc~;
#X obj 272 132 *~ 0.0204082;
#X obj 271 82 * 7;
#X obj 368 106 osc~;
#X obj 369 131 *~ 0.0123457;
#X obj 368 81 * 9;
#X obj 464 106 osc~;
#X obj 465 131 *~ 0.0082644;
#X obj 464 81 * 11;
#X obj 70 246 outlet~;
#X obj 73 0 inlet frequency;
#X obj 71 215 *~ 0.9;
#X connect 0 0 3 0;
#X connect 1 0 4 0;
#X connect 2 0 18 0;
#X connect 3 0 5 0;
#X connect 4 0 6 0;
#X connect 5 0 18 0;
#X connect 6 0 18 0;
#X connect 7 0 8 0;
#X connect 8 0 18 0;
#X connect 9 0 7 0;
#X connect 10 0 11 0;
#X connect 11 0 18 0;
#X connect 12 0 10 0;
#X connect 13 0 14 0;
#X connect 14 0 18 0;
#X connect 15 0 13 0;
#X connect 17 0 2 0;
#X connect 17 0 0 0;
#X connect 17 0 1 0;
#X connect 17 0 9 0;
#X connect 17 0 12 0;
#X connect 17 0 15 0;
#X connect 18 0 16 0;
