#N canvas 458 47 451 700 10;
#X obj 132 164 line;
#X obj 59 147 +~;
#X obj 60 208 outlet~;
#X obj 109 70 osc~;
#X obj 58 70 osc~;
#X obj 108 91 *~ 0.5;
#X obj 132 9 inlet fundamental_frequency;
#X obj 58 47 * 9;
#X msg 132 141 1 \, 0 10000;
#X obj 60 178 *~ 0.1;
#X obj 58 92 *~ 0.08;
#X obj 211 73 osc~;
#X obj 211 50 / 2;
#X obj 210 94 *~ 0.01;
#X connect 0 0 9 1;
#X connect 1 0 9 0;
#X connect 3 0 5 0;
#X connect 4 0 10 0;
#X connect 5 0 1 0;
#X connect 6 0 8 0;
#X connect 6 0 3 0;
#X connect 6 0 7 0;
#X connect 6 0 12 0;
#X connect 7 0 4 0;
#X connect 8 0 0 0;
#X connect 9 0 2 0;
#X connect 10 0 1 0;
#X connect 11 0 1 0;
#X connect 11 0 13 0;
#X connect 12 0 11 0;
#X connect 13 0 1 0;
