#N canvas 2 101 1362 646 10;
#X obj 180 463 dac~;
#X obj 348 41 tgl 15 0 empty empty empty 17 7 0 10 -262144 -1 -1 1
1;
#X obj 348 145 tgl 15 0 empty empty empty 17 7 0 10 -262144 -1 -1 0
1;
#X obj 371 145 tgl 15 0 empty empty empty 17 7 0 10 -262144 -1 -1 0
1;
#X obj 395 145 tgl 15 0 empty empty empty 17 7 0 10 -262144 -1 -1 1
1;
#X obj 419 145 tgl 15 0 empty empty empty 17 7 0 10 -262144 -1 -1 1
1;
#X obj 332 215 osc~ 311;
#X obj 557 349 line 0 100;
#X obj 348 91 random 4;
#X obj 348 118 select 0 1 2 3;
#X obj 332 237 *~ 0.1;
#X obj 356 279 *~ 0.1;
#X obj 380 323 *~ 0.1;
#X obj 310 193 *~ 0.1;
#X obj 196 122 vline~;
#X obj 180 339 *~;
#X msg 196 94 0 \, 1 100 0 \, 0 100 1;
#X obj 557 373 osc~;
#X msg 557 324 0 10;
#X msg 602 324 60 10;
#X obj 558 400 *~ 0.05;
#X obj 348 65 metro 1 380 permin;
#X obj 638 351 noise~;
#X obj 686 374 line~;
#X obj 646 402 *~;
#X obj 637 373 *~ 0.1;
#X msg 686 351 0.3 \, 0 100;
#X obj 776 347 noise~;
#X obj 851 393 line~;
#X obj 785 426 *~;
#X msg 851 370 0.3 \, 0 100;
#X obj 851 346 delay 75;
#X obj 776 397 *~ 0.01;
#X obj 379 300 osc~ 493;
#X obj 777 370 hip~ 5000;
#X obj 1026 409 line~;
#X obj 956 425 *~;
#X obj 956 447 *~ 0.01;
#X obj 955 372 noise~;
#X obj 898 408 osc~ 30;
#X obj 956 397 lop~ 1000;
#X msg 1026 384 1 \, 0 50;
#X obj 225 349 osc~ 130;
#X obj 305 349 osc~ 196;
#X obj 369 348 osc~ 523;
#X obj 356 258 osc~ 392;
#X obj 309 166 osc~ 261;
#X obj 434 337 *~;
#X obj 434 320 osc~ 783;
#X obj 226 377 *~ 0.001;
#X obj 499 321 osc~ 5;
#X obj 434 361 *~ 0.35;
#X text 1025 349 Kick;
#X obj 325 549 tgl 15 0 empty empty empty 17 7 0 10 -262144 -1 -1 0
1;
#X connect 1 0 21 0;
#X connect 2 0 13 1;
#X connect 3 0 10 1;
#X connect 3 0 18 0;
#X connect 4 0 11 1;
#X connect 4 0 19 0;
#X connect 4 0 41 0;
#X connect 5 0 12 1;
#X connect 6 0 10 0;
#X connect 7 0 17 0;
#X connect 8 0 9 0;
#X connect 9 0 2 0;
#X connect 9 1 3 0;
#X connect 9 2 4 0;
#X connect 9 3 5 0;
#X connect 9 3 26 0;
#X connect 9 3 31 0;
#X connect 10 0 15 0;
#X connect 11 0 15 0;
#X connect 12 0 15 0;
#X connect 13 0 15 0;
#X connect 14 0 15 1;
#X connect 15 0 0 0;
#X connect 16 0 14 0;
#X connect 17 0 20 0;
#X connect 18 0 7 0;
#X connect 19 0 7 0;
#X connect 20 0 0 1;
#X connect 21 0 8 0;
#X connect 21 0 16 0;
#X connect 22 0 25 0;
#X connect 23 0 24 1;
#X connect 24 0 0 0;
#X connect 25 0 24 0;
#X connect 26 0 23 0;
#X connect 27 0 34 0;
#X connect 28 0 29 1;
#X connect 29 0 0 1;
#X connect 30 0 28 0;
#X connect 31 0 30 0;
#X connect 32 0 29 0;
#X connect 33 0 12 0;
#X connect 34 0 32 0;
#X connect 35 0 36 1;
#X connect 36 0 37 0;
#X connect 37 0 0 1;
#X connect 37 0 0 0;
#X connect 38 0 40 0;
#X connect 39 0 36 0;
#X connect 40 0 36 0;
#X connect 41 0 35 0;
#X connect 42 0 49 0;
#X connect 43 0 49 0;
#X connect 44 0 49 0;
#X connect 45 0 11 0;
#X connect 46 0 13 0;
#X connect 47 0 51 0;
#X connect 48 0 47 0;
#X connect 49 0 0 1;
#X connect 49 0 0 0;
#X connect 50 0 47 1;
#X connect 51 0 49 0;
