#N canvas 822 74 269 673 10;
#X obj 10 162 mtof;
#X obj 10 118 + 60;
#X floatatom 10 141 5 0 0 0 - - -;
#N canvas 1027 47 337 700 ramped-osc 1;
#X obj 9 54 line;
#X floatatom 9 76 5 0 0 0 - - -;
#X obj 9 11 inlet;
#X obj 9 119 outlet~;
#X msg 9 32 \$1 60000;
#X obj 9 97 phasor~;
#X connect 0 0 1 0;
#X connect 1 0 5 0;
#X connect 2 0 4 0;
#X connect 4 0 0 0;
#X connect 5 0 3 0;
#X restore 10 187 pd ramped-osc;
#X obj 50 34 + 1;
#X obj 10 56 mod 50;
#X obj 10 97 tabread pi;
#X obj 10 11 inlet n;
#X obj 10 34 f \$1;
#X obj 10 76 + \$1;
#X obj 9 210 outlet~;
#X connect 0 0 3 0;
#X connect 1 0 2 0;
#X connect 2 0 0 0;
#X connect 3 0 10 0;
#X connect 4 0 8 1;
#X connect 5 0 9 0;
#X connect 6 0 1 0;
#X connect 7 0 8 0;
#X connect 8 0 4 0;
#X connect 8 0 5 0;
#X connect 9 0 6 0;
