#N canvas 2 137 1362 610 10;
#X obj 205 490 dac~;
#N canvas 2 155 1362 592 (subpatch) 0;
#X array first 50 float 3;
#A 0 3 1 4 1 5 9 2 6 5 3 5 8 9 7 9 3 2 3 8 4 6 2 6 4 3 3 8 3 2 7 9
5 0 2 8 8 4 1 9 7 1 6 9 3 9 9 3 7 5 1;
#X coords 0 10 50 0 200 140 1 0 0;
#X restore 845 23 graph;
#N canvas 0 50 450 250 (subpatch) 0;
#X array remaining 50 float 3;
#A 0 0 5 8 2 0 9 7 4 9 4 4 5 9 2 3 0 7 8 1 6 4 0 6 2 8 6 2 0 8 9 9
8 6 2 8 0 3 4 8 2 5 3 4 2 1 1 7 0 6 7;
#X coords 0 0 50 10 200 140 1 0 0;
#X restore 845 235 graph;
#X msg 845 171 \; first read ./data/first-50;
#X msg 845 386 \; remaining read ./data/next-50;
#X obj 152 48 tgl 15 0 empty empty empty 17 7 0 10 -262144 -1 -1 0
1;
#X obj 152 75 metro 1 120 permin;
#X obj 152 100 f;
#X obj 183 100 + 1;
#X obj 152 160 tabread first;
#X obj 261 161 tabread remaining;
#X obj 152 124 mod 50;
#X obj 152 250 osc~;
#X obj 261 248 osc~;
#X obj 152 226 mtof;
#X obj 261 226 mtof;
#X obj 152 181 + 60;
#X obj 261 182 + 60;
#X floatatom 261 205 5 0 0 0 - - -;
#X floatatom 152 204 5 0 0 0 - - -;
#X connect 5 0 6 0;
#X connect 6 0 7 0;
#X connect 7 0 8 0;
#X connect 7 0 11 0;
#X connect 8 0 7 1;
#X connect 9 0 16 0;
#X connect 10 0 17 0;
#X connect 11 0 9 0;
#X connect 11 0 10 0;
#X connect 12 0 0 0;
#X connect 13 0 0 1;
#X connect 14 0 12 0;
#X connect 15 0 13 0;
#X connect 16 0 19 0;
#X connect 17 0 18 0;
#X connect 18 0 15 0;
#X connect 19 0 14 0;
