#N canvas 2 227 1362 520 10;
#X obj 406 168 inlet;
#X obj 412 493 outlet;
#X text 770 21 Input is a number from 0 - 7 (for now) output is a different
mode/scale depending on the number. The higher the number \, the brighter
the scale (i.e. lydian) \, the lower the number \, the darker the scale
(i.e. Locrian);
#X obj 406 213 select 0 1 2 3 4 5 6 7;
#X msg 658 333 60 62 64 65 67 69 71;
#X msg 658 269 60 62 64 66 67 69 71;
#X obj 406 190 f \$1;
#X obj 412 469 receive scale;
#X obj 489 351 send scale;
#X obj 132 260 send scale;
#X obj 197 310 send scale;
#X obj 398 356 send scale;
#X obj 273 429 send scale;
#X obj 658 289 send scale;
#X obj 658 352 send scale;
#X obj 657 425 send scale;
#X msg 197 289 2 3 4 5;
#X msg 398 334 4 5 6 7;
#X msg 489 328 5 6 7 8;
#X text 658 247 lydian;
#X text 663 314 ionian;
#X msg 657 404 60 62 64 65 67 69 70;
#X text 662 384 mixolydian;
#X msg 273 407 60 62 63 65 67 68 70;
#X text 280 387 aeolian;
#X text 134 219 locrian;
#X msg 133 239 60 61 63 65 66 68 70;
#X connect 0 0 6 0;
#X connect 3 0 26 0;
#X connect 3 1 16 0;
#X connect 3 2 23 0;
#X connect 3 3 17 0;
#X connect 3 4 18 0;
#X connect 3 5 21 0;
#X connect 3 6 4 0;
#X connect 3 7 5 0;
#X connect 4 0 14 0;
#X connect 5 0 13 0;
#X connect 6 0 3 0;
#X connect 7 0 1 0;
#X connect 16 0 10 0;
#X connect 17 0 11 0;
#X connect 18 0 8 0;
#X connect 21 0 15 0;
#X connect 23 0 12 0;
#X connect 26 0 9 0;
