#N canvas 214 47 956 700 10;
#N canvas 621 74 270 673 (subpatch) 0;
#X array notes 8 float 3;
#A 0 57 60 61 64 69 63 57 75;
#X coords 0 50 8 70 200 140 1 0 0;
#X restore 15 23 graph;
#X obj 314 279 tabread notes;
#X obj 314 304 mtof;
#X obj 196 445 dac~;
#X obj 287 253 tgl 15 0 empty empty empty 17 7 0 10 -262144 -1 -1 1
1;
#X obj 287 193 bng 15 250 50 0 empty empty empty 17 7 0 10 -262144
-1 -1;
#X obj 197 268 *~;
#X obj 197 218 phasor~ 110;
#X obj 112 218 phasor~ 111;
#X obj 314 329 * 2;
#X obj 19 268 delread~ main_delay 1000;
#X obj 253 369 *~ 0.5;
#X obj 19 292 lop~ 500;
#X obj 20 316 *~ 0.7;
#X obj 313 387 delwrite~ main_delay 1000;
#X obj 314 254 random 7;
#X obj 314 353 osc~;
#X obj 287 218 metro 200;
#X obj 419 228 metro 400;
#X obj 419 255 tgl 15 0 empty empty empty 17 7 0 10 -262144 -1 -1 0
1;
#X obj 491 270 lop~ 5000;
#X obj 424 286 *~;
#X obj 424 316 *~ 0.3;
#X obj 584 221 metro 100;
#X obj 491 228 noise~;
#X text 417 195 Snare;
#X obj 584 247 tgl 15 0 empty empty empty 17 7 0 10 -262144 -1 -1 1
1;
#X obj 659 221 noise~;
#X obj 584 275 *~;
#X obj 659 247 hip~ 6000;
#X obj 584 427 *~ 0.7;
#X text 581 190 Hi-hats;
#X connect 1 0 2 0;
#X connect 2 0 9 0;
#X connect 4 0 6 1;
#X connect 5 0 17 0;
#X connect 5 0 18 0;
#X connect 5 0 23 0;
#X connect 6 0 3 1;
#X connect 6 0 3 0;
#X connect 7 0 6 0;
#X connect 8 0 6 0;
#X connect 9 0 16 0;
#X connect 10 0 12 0;
#X connect 11 0 3 1;
#X connect 12 0 13 0;
#X connect 13 0 3 0;
#X connect 15 0 1 0;
#X connect 16 0 11 0;
#X connect 16 0 14 0;
#X connect 17 0 4 0;
#X connect 17 0 15 0;
#X connect 18 0 19 0;
#X connect 19 0 21 0;
#X connect 20 0 21 1;
#X connect 21 0 22 0;
#X connect 22 0 3 1;
#X connect 22 0 3 0;
#X connect 23 0 26 0;
#X connect 24 0 20 0;
#X connect 26 0 28 0;
#X connect 27 0 29 0;
#X connect 28 0 30 0;
#X connect 29 0 28 1;
#X connect 30 0 3 0;
